<svg xmlns="http://www.w3.org/2000/svg" width="800" height="450" viewBox="0 0 800 450" role="img">
<defs><linearGradient id="bgg" x1="0" y1="0" x2="0" y2="1"><stop offset="0" stop-color="#101a30"/><stop offset="0.6" stop-color="#0d1424"/><stop offset="1" stop-color="#0d1117"/></linearGradient><radialGradient id="glow" cx="0.5" cy="0.4" r="0.9"><stop offset="0" stop-color="#1b2b4d" stop-opacity="0.55"/><stop offset="1" stop-color="#0d1117" stop-opacity="0"/></radialGradient><marker id="arB" viewBox="0 0 10 10" refX="8.5" refY="5" markerWidth="7" markerHeight="7" orient="auto"><path d="M0,0 L10,5 L0,10 z" fill="#58a6ff"/></marker><marker id="arR" viewBox="0 0 10 10" refX="8.5" refY="5" markerWidth="7" markerHeight="7" orient="auto"><path d="M0,0 L10,5 L0,10 z" fill="#ff7b72"/></marker><marker id="arG" viewBox="0 0 10 10" refX="8.5" refY="5" markerWidth="7" markerHeight="7" orient="auto"><path d="M0,0 L10,5 L0,10 z" fill="#3fb950"/></marker><marker id="arY" viewBox="0 0 10 10" refX="8.5" refY="5" markerWidth="7" markerHeight="7" orient="auto"><path d="M0,0 L10,5 L0,10 z" fill="#f0b429"/></marker><marker id="arW" viewBox="0 0 10 10" refX="8.5" refY="5" markerWidth="7" markerHeight="7" orient="auto"><path d="M0,0 L10,5 L0,10 z" fill="#e6edf3"/></marker><marker id="arP" viewBox="0 0 10 10" refX="8.5" refY="5" markerWidth="7" markerHeight="7" orient="auto"><path d="M0,0 L10,5 L0,10 z" fill="#d2a8ff"/></marker><marker id="arO" viewBox="0 0 10 10" refX="8.5" refY="5" markerWidth="7" markerHeight="7" orient="auto"><path d="M0,0 L10,5 L0,10 z" fill="#ffa657"/></marker><marker id="arD" viewBox="0 0 10 10" refX="8.5" refY="5" markerWidth="7" markerHeight="7" orient="auto"><path d="M0,0 L10,5 L0,10 z" fill="#8b949e"/></marker><marker id="arC" viewBox="0 0 10 10" refX="8.5" refY="5" markerWidth="7" markerHeight="7" orient="auto"><path d="M0,0 L10,5 L0,10 z" fill="#79c0ff"/></marker></defs>
<rect width="800" height="450" fill="url(#bgg)"/>
<rect width="800" height="450" fill="url(#glow)"/>
<text x="28" y="42" font-family="sans-serif" font-size="19" fill="#8b949e" text-anchor="start" font-weight="bold">07 · 碎纸条拼原串：迹重建的极限</text>
<text x="70" y="130" font-family="sans-serif" font-size="14" fill="#8b949e" text-anchor="start" font-weight="normal">迹 1</text>
<rect x="120" y="110" width="330" height="34" rx="6" fill="#161b22" stroke="#8b949e" stroke-width="1.5" opacity="1"/>
<text x="135" y="133" font-family="sans-serif" font-size="17" fill="#79c0ff" text-anchor="start" font-weight="normal">1 0 – 1 1 – 0 1</text>
<text x="70" y="185" font-family="sans-serif" font-size="14" fill="#8b949e" text-anchor="start" font-weight="normal">迹 2</text>
<rect x="120" y="165" width="330" height="34" rx="6" fill="#161b22" stroke="#8b949e" stroke-width="1.5" opacity="1"/>
<text x="135" y="188" font-family="sans-serif" font-size="17" fill="#79c0ff" text-anchor="start" font-weight="normal">– 0 1 – 1 0 1 –</text>
<text x="70" y="240" font-family="sans-serif" font-size="14" fill="#8b949e" text-anchor="start" font-weight="normal">迹 3</text>
<rect x="120" y="220" width="330" height="34" rx="6" fill="#161b22" stroke="#8b949e" stroke-width="1.5" opacity="1"/>
<text x="135" y="243" font-family="sans-serif" font-size="17" fill="#79c0ff" text-anchor="start" font-weight="normal">1 – 1 0 – – 0 1</text>
<line x1="460" y1="165" x2="540" y2="165" stroke="#58a6ff" stroke-width="3" marker-end="url(#arB)"/>
<rect x="550" y="130" width="200" height="70" rx="10" fill="#0e2a1a" stroke="#3fb950" stroke-width="2.5" opacity="1"/>
<text x="650" y="158" font-family="sans-serif" font-size="20" fill="#3fb950" text-anchor="middle" font-weight="bold">10110101</text>
<text x="650" y="184" font-family="sans-serif" font-size="14" fill="#e6edf3" text-anchor="middle" font-weight="normal">拼出完整原串</text>
<text x="70" y="290" font-family="sans-serif" font-size="15" fill="#e6edf3" text-anchor="start" font-weight="bold">所需迹的数量</text>
<line x1="70" y1="320" x2="730" y2="320" stroke="#8b949e" stroke-width="2.5"/>
<text x="70" y="348" font-family="sans-serif" font-size="14" fill="#8b949e" text-anchor="start" font-weight="normal">多项式</text>
<text x="700" y="348" font-family="sans-serif" font-size="14" fill="#8b949e" text-anchor="end" font-weight="normal">指数级</text>
<line x1="300" y1="300" x2="340" y2="340" stroke="#ff7b72" stroke-width="5"/>
<line x1="340" y1="300" x2="300" y2="340" stroke="#ff7b72" stroke-width="5"/>
<text x="320" y="375" font-family="sans-serif" font-size="14" fill="#ff7b72" text-anchor="middle" font-weight="bold">本成果排除 ✗</text>
<path d="M540,320 L555,335 L580,305" fill="none" stroke="#3fb950" stroke-width="4" opacity="1"/>
<text x="600" y="375" font-family="sans-serif" font-size="14" fill="#3fb950" text-anchor="middle" font-weight="bold">拟多项式 ✓</text>
<text x="400" y="415" font-family="sans-serif" font-size="13" fill="#8b949e" text-anchor="middle" font-weight="normal">随机缺字也能拼回去，但多项式条数不够——这是定理</text>
</svg>