<svg xmlns="http://www.w3.org/2000/svg" width="800" height="450" viewBox="0 0 800 450" role="img">
<defs><linearGradient id="bgg" x1="0" y1="0" x2="0" y2="1"><stop offset="0" stop-color="#101a30"/><stop offset="0.6" stop-color="#0d1424"/><stop offset="1" stop-color="#0d1117"/></linearGradient><radialGradient id="glow" cx="0.5" cy="0.4" r="0.9"><stop offset="0" stop-color="#1b2b4d" stop-opacity="0.55"/><stop offset="1" stop-color="#0d1117" stop-opacity="0"/></radialGradient><marker id="arB" viewBox="0 0 10 10" refX="8.5" refY="5" markerWidth="7" markerHeight="7" orient="auto"><path d="M0,0 L10,5 L0,10 z" fill="#58a6ff"/></marker><marker id="arR" viewBox="0 0 10 10" refX="8.5" refY="5" markerWidth="7" markerHeight="7" orient="auto"><path d="M0,0 L10,5 L0,10 z" fill="#ff7b72"/></marker><marker id="arG" viewBox="0 0 10 10" refX="8.5" refY="5" markerWidth="7" markerHeight="7" orient="auto"><path d="M0,0 L10,5 L0,10 z" fill="#3fb950"/></marker><marker id="arY" viewBox="0 0 10 10" refX="8.5" refY="5" markerWidth="7" markerHeight="7" orient="auto"><path d="M0,0 L10,5 L0,10 z" fill="#f0b429"/></marker><marker id="arW" viewBox="0 0 10 10" refX="8.5" refY="5" markerWidth="7" markerHeight="7" orient="auto"><path d="M0,0 L10,5 L0,10 z" fill="#e6edf3"/></marker><marker id="arP" viewBox="0 0 10 10" refX="8.5" refY="5" markerWidth="7" markerHeight="7" orient="auto"><path d="M0,0 L10,5 L0,10 z" fill="#d2a8ff"/></marker><marker id="arO" viewBox="0 0 10 10" refX="8.5" refY="5" markerWidth="7" markerHeight="7" orient="auto"><path d="M0,0 L10,5 L0,10 z" fill="#ffa657"/></marker><marker id="arD" viewBox="0 0 10 10" refX="8.5" refY="5" markerWidth="7" markerHeight="7" orient="auto"><path d="M0,0 L10,5 L0,10 z" fill="#8b949e"/></marker><marker id="arC" viewBox="0 0 10 10" refX="8.5" refY="5" markerWidth="7" markerHeight="7" orient="auto"><path d="M0,0 L10,5 L0,10 z" fill="#79c0ff"/></marker></defs>
<rect width="800" height="450" fill="url(#bgg)"/>
<rect width="800" height="450" fill="url(#glow)"/>
<text x="28" y="42" font-family="sans-serif" font-size="19" fill="#8b949e" text-anchor="start" font-weight="bold">30 · 两个生成元 ≅ 三个生成元</text>
<rect x="90" y="130" width="170" height="170" rx="8" fill="#101a30" stroke="#58a6ff" stroke-width="2.5" opacity="1"/>
<line x1="124" y1="130" x2="124" y2="300" stroke="#2a3a55" stroke-width="1"/>
<line x1="90" y1="164" x2="260" y2="164" stroke="#2a3a55" stroke-width="1"/>
<line x1="158" y1="130" x2="158" y2="300" stroke="#2a3a55" stroke-width="1"/>
<line x1="90" y1="198" x2="260" y2="198" stroke="#2a3a55" stroke-width="1"/>
<line x1="192" y1="130" x2="192" y2="300" stroke="#2a3a55" stroke-width="1"/>
<line x1="90" y1="232" x2="260" y2="232" stroke="#2a3a55" stroke-width="1"/>
<line x1="226" y1="130" x2="226" y2="300" stroke="#2a3a55" stroke-width="1"/>
<line x1="90" y1="266" x2="260" y2="266" stroke="#2a3a55" stroke-width="1"/>
<text x="90" y="335" font-family="sans-serif" font-size="18" fill="#8b949e" text-anchor="start" font-weight="normal">⋮</text>
<text x="175" y="115" font-family="sans-serif" font-size="15" fill="#58a6ff" text-anchor="middle" font-weight="bold">2 个生成元</text>
<text x="175" y="360" font-family="sans-serif" font-size="12" fill="#8b949e" text-anchor="middle" font-weight="normal">无穷维矩阵</text>
<rect x="540" y="130" width="170" height="170" rx="8" fill="#101a30" stroke="#58a6ff" stroke-width="2.5" opacity="1"/>
<line x1="574" y1="130" x2="574" y2="300" stroke="#2a3a55" stroke-width="1"/>
<line x1="540" y1="164" x2="710" y2="164" stroke="#2a3a55" stroke-width="1"/>
<line x1="608" y1="130" x2="608" y2="300" stroke="#2a3a55" stroke-width="1"/>
<line x1="540" y1="198" x2="710" y2="198" stroke="#2a3a55" stroke-width="1"/>
<line x1="642" y1="130" x2="642" y2="300" stroke="#2a3a55" stroke-width="1"/>
<line x1="540" y1="232" x2="710" y2="232" stroke="#2a3a55" stroke-width="1"/>
<line x1="676" y1="130" x2="676" y2="300" stroke="#2a3a55" stroke-width="1"/>
<line x1="540" y1="266" x2="710" y2="266" stroke="#2a3a55" stroke-width="1"/>
<text x="540" y="335" font-family="sans-serif" font-size="18" fill="#8b949e" text-anchor="start" font-weight="normal">⋮</text>
<text x="625" y="115" font-family="sans-serif" font-size="15" fill="#58a6ff" text-anchor="middle" font-weight="bold">3 个生成元</text>
<text x="625" y="360" font-family="sans-serif" font-size="12" fill="#8b949e" text-anchor="middle" font-weight="normal">无穷维矩阵</text>
<text x="400" y="235" font-family="sans-serif" font-size="64" fill="#f0b429" text-anchor="middle" font-weight="bold">≅</text>
<text x="400" y="285" font-family="sans-serif" font-size="15" fill="#f0b429" text-anchor="middle" font-weight="bold">同一个房间！</text>
<line x1="150" y1="400" x2="650" y2="400" stroke="#3fb950" stroke-width="3" marker-end="url(#arG)" marker-start="url(#arG)"/>
<line x1="150" y1="394" x2="150" y2="406" stroke="#3fb950" stroke-width="2"/>
<line x1="200" y1="394" x2="200" y2="406" stroke="#3fb950" stroke-width="2"/>
<line x1="250" y1="394" x2="250" y2="406" stroke="#3fb950" stroke-width="2"/>
<line x1="300" y1="394" x2="300" y2="406" stroke="#3fb950" stroke-width="2"/>
<line x1="350" y1="394" x2="350" y2="406" stroke="#3fb950" stroke-width="2"/>
<line x1="400" y1="394" x2="400" y2="406" stroke="#3fb950" stroke-width="2"/>
<line x1="450" y1="394" x2="450" y2="406" stroke="#3fb950" stroke-width="2"/>
<line x1="500" y1="394" x2="500" y2="406" stroke="#3fb950" stroke-width="2"/>
<line x1="550" y1="394" x2="550" y2="406" stroke="#3fb950" stroke-width="2"/>
<line x1="600" y1="394" x2="600" y2="406" stroke="#3fb950" stroke-width="2"/>
<line x1="650" y1="394" x2="650" y2="406" stroke="#3fb950" stroke-width="2"/>
<text x="400" y="432" font-family="sans-serif" font-size="14" fill="#3fb950" text-anchor="middle" font-weight="bold">ℝ_{&gt;0}：任意缩放都还是它自己</text>
</svg>